:version 1.10
:name ASF
:units
  mass 1
  length 1
  angle deg
:documentation
  ASF file generated by Kaydara
:root
  axis xyz
  order  tx ty tz rx ry rz
  position 0 0 0
  orientation 0 0 0
:bonedata
  begin
    id 1
    name RightUpLegDummy
    direction -0.718183 -0.695806 0.00816078
    length 4.904
    axis 0 0 0 xyz
  end
  begin
    id 2
    name RightUpLeg
    direction 3.53373e-006 -0.995788 0.0916898
    length 17.4976
    axis -3.49089 -0.000906625 0.000286804 xyz
    dof rx ry rz
  end
  begin
    id 3
    name RightLeg
    direction 0.00371092 -0.995096 -0.0988419
    length 16.5821
    axis 3.68512 0.0193738 -0.131023 xyz
    dof rx ry rz
  end
  begin
    id 4
    name RightFoot
    direction 0.00079151 -0.46099 0.887405
    length 3.77069
    axis 4.81691e-005 -0.120479 -0.188788 xyz
    dof rx ry rz
  end
  begin
    id 5
    name RightToes
    direction 0 0 0
    length 0
    axis 0 0 0 xyz
    dof rx ry rz
  end
  begin
    id 6
    name SpineDummy
    direction 8.3039e-015 1 4.57515e-016
    length 4.6813
    axis 0 0 0 xyz
  end
  begin
    id 7
    name Spine
    direction -3.15643e-008 0.999988 0.00495137
    length 10.1015
    axis -0.001389 0.000121418 2.40972e-006 xyz
    dof rx ry rz
  end
  begin
    id 8
    name Spine1
    direction 0 0 0
    length 0
    axis -0.001389 0.000121451 1.30017e-006 xyz
    dof rx ry rz
  end
  begin
    id 9
    name HEadDummy
    direction -1.99912e-008 0.999999 0.00127422
    length 3.43865
    axis -0.001389 0.000121451 1.30017e-006 xyz
  end
  begin
    id 10
    name HEad
    direction 0 0 0
    length 0
    axis 0 0 0 xyz
    dof rx ry rz
  end
  begin
    id 11
    name LeftShoulder1Dummy
    direction 0.998891 -0.0402509 -0.0244456
    length 3.5433
    axis -0.001389 0.000121451 1.30017e-006 xyz
  end
  begin
    id 12
    name LeftShoulder1
    direction 0.99951 -0.000327763 0.0313091
    length 4.05031
    axis -0.001389 0.000121451 1.30017e-006 xyz
    dof rx ry rz
  end
  begin
    id 13
    name LeftArm
    direction 0.998561 -0.00100056 -0.0536182
    length 10.3537
    axis -23.1894 0.134784 0.967509 xyz
    dof rx ry rz
  end
  begin
    id 14
    name LeftForeArm
    direction 0.998903 0.00866432 0.046012
    length 8.70632
    axis -9.91835 -0.06569 -0.177794 xyz
    dof rx ry rz
  end
  begin
    id 15
    name LeftHand
    direction 0 0 0
    length 0
    axis 0 0 0 xyz
    dof rx ry rz
  end
  begin
    id 16
    name RightShoulderDummy
    direction -0.998891 -0.0402509 -0.0244414
    length 3.5433
    axis -0.001389 0.000121451 1.30017e-006 xyz
  end
  begin
    id 17
    name RightShoulder
    direction -0.99951 -0.000327807 0.0313133
    length 4.05031
    axis 0.215806 0.000203643 -0.0068026 xyz
    dof rx ry rz
  end
  begin
    id 18
    name RightArm
    direction -0.998573 -0.000999564 -0.053403
    length 10.3947
    axis -23.2009 -0.134239 -0.964101 xyz
    dof rx ry rz
  end
  begin
    id 19
    name RightForeArm
    direction -0.998898 0.00868028 0.0461306
    length 8.68355
    axis -9.92322 0.0658061 0.178868 xyz
    dof rx ry rz
  end
  begin
    id 20
    name RightHand
    direction 0 0 0
    length 0
    axis 0 0 0 xyz
    dof rx ry rz
  end
  begin
    id 21
    name LeftUpLegDummy
    direction 0.718183 -0.695806 0.00816078
    length 4.904
    axis 0 0 0 xyz
  end
  begin
    id 22
    name LeftUpLeg
    direction -6.81752e-006 -0.995793 0.0916337
    length 17.4976
    axis -3.48766 0.00143442 -0.000524262 xyz
    dof rx ry rz
  end
  begin
    id 23
    name LeftLeg
    direction -0.00601358 -0.995091 -0.0987824
    length 16.5821
    axis 3.68178 -0.00654042 -0.000285133 xyz
    dof rx ry rz
  end
  begin
    id 24
    name LeftFoot
    direction -0.00417578 -0.460984 0.887399
    length 3.77069
    axis 1.87233e-006 4.66016e-005 -8.6538e-006 xyz
    dof rx ry rz
  end
  begin
    id 25
    name LeftToes
    direction 0 0 0
    length 0
    axis 0 0 0 xyz
    dof rx ry rz
  end
:hierarchy
  begin
    root RightUpLegDummy SpineDummy LeftUpLegDummy
    RightUpLegDummy RightUpLeg
    RightUpLeg RightLeg
    RightLeg RightFoot
    RightFoot RightToes
    SpineDummy Spine
    Spine Spine1
    Spine1 HEadDummy LeftShoulder1Dummy RightShoulderDummy
    HEadDummy HEad
    LeftShoulder1Dummy LeftShoulder1
    LeftShoulder1 LeftArm
    LeftArm LeftForeArm
    LeftForeArm LeftHand
    RightShoulderDummy RightShoulder
    RightShoulder RightArm
    RightArm RightForeArm
    RightForeArm RightHand
    LeftUpLegDummy LeftUpLeg
    LeftUpLeg LeftLeg
    LeftLeg LeftFoot
    LeftFoot LeftToes
  end

:SAMPLES-PER-SECOND 30
:FULLY-SPECIFIED
:DEGREES
79
root  13.1719 36.5003 -0.61933 38.938 -81.1717 -44.576
RightUpLeg  -26.726 -15.8189 9.79074
RightLeg  44.699 -4.10951 -4.65579
RightFoot  -11.9386 -0.111779 -6.86437
RightToes  0.000481921 0.542163 -0.142578
Spine  11.7065 -4.88975 -3.57534
Spine1  0.518796 -8.77536 20.4683
HEad  -12.8005 11.146 14.4418
LeftShoulder1  8.55116 -13.3488 -44.1849
LeftArm  -7.58868 -28.1544 -33.0851
LeftForeArm  44.5136 -54.1616 -11.8532
LeftHand  -0.25398 0.0180481 5.50724
RightShoulder  2.67588 4.60377 26.955
RightArm  -27.3326 -36.5481 25.5353
RightForeArm  -43.3862 17.0415 5.52766
RightHand  -3.89839 13.1089 -24.5657
LeftUpLeg  7.90846 3.99085 12.5734
LeftLeg  55.0202 6.16041 9.83388
LeftFoot  -5.69588 0.381453 -6.7112
LeftToes  1.06245e-005 4.65868e-005 -8.65515e-006
80
root  11.6628 36.436 -0.772877 48.0439 -81.7496 -53.6285
RightUpLeg  -24.6838 -16.466 10.2532
RightLeg  46.1177 -2.49741 -3.12903
RightFoot  -14.9941 -0.293061 -5.91937
RightToes  0.000481921 0.542163 -0.142578
Spine  11.0907 -4.47698 -1.30686
Spine1  1.01061 -7.7848 19.1532
HEad  -11.9512 9.92186 14.5448
LeftShoulder1  8.96581 -13.4934 -46.0051
LeftArm  -5.90454 -20.1217 -31.295
LeftForeArm  45.466 -52.5035 -10.9978
LeftHand  -0.25398 0.0180481 5.50724
RightShoulder  2.90558 4.90141 28.5595
RightArm  -30.5075 -28.7064 30.7099
RightForeArm  -50.1526 15.3532 5.31423
RightHand  -4.18237 13.5189 -25.7288
LeftUpLeg  1.89594 4.13116 12.6752
LeftLeg  65.0233 4.97877 12.1794
LeftFoot  -2.83004 0.269391 -3.23175
LeftToes  1.06245e-005 4.65868e-005 -8.65515e-006
81
root  10.1604 36.9211 -0.924739 61.1514 -83.8032 -66.803
RightUpLeg  -20.6155 -16.0176 9.12058
RightLeg  44.1853 -1.5135 -1.88212
RightFoot  -16.3239 -0.387566 -6.40037
RightToes  0.000481921 0.542163 -0.142578
Spine  10.0856 -3.20376 0.124773
Spine1  1.99277 -5.92461 16.5337
HEad  -11.9921 8.19389 13.8045
LeftShoulder1  9.27032 -13.5359 -47.4841
LeftArm  -3.6893 -11.0979 -30.3059
LeftForeArm  43.8713 -47.9865 -9.25031
LeftHand  -0.25398 0.0180481 5.50724
RightShoulder  3.4818 5.93003 30.9201
RightArm  -31.2759 -20.539 34.0411
RightForeArm  -55.5485 13.579 5.24729
RightHand  -4.28876 13.4174 -26.4771
LeftUpLeg  -2.7619 5.27932 11.0216
LeftLeg  69.8293 4.24682 13.4641
LeftFoot  -3.83017 0.203196 -2.75946
LeftToes  1.06245e-005 4.65868e-005 -8.65515e-006
82
root  8.67631 37.9015 -1.03927 86.6356 -85.7032 -92.1337
RightUpLeg  -15.0156 -15.7869 7.1683
RightLeg  38.4098 0.0689397 -0.279935
RightFoot  -15.3007 -0.346446 -7.15314
RightToes  0.000481921 0.542163 -0.142578
Spine  8.6608 -1.85767 1.56818
Spine1  3.31237 -3.89081 13.2829
HEad  -12.4452 6.38059 12.8368
LeftShoulder1  9.53031 -13.537 -48.8273
LeftArm  -0.984169 -1.9134 -29.272
LeftForeArm  37.7823 -39.6355 -6.84241
LeftHand  -0.25398 0.0180481 5.50724
RightShoulder  4.29611 7.30044 33.8181
RightArm  -28.465 -12.4556 35.1453
RightForeArm  -53.3542 12.0273 5.85512
RightHand  -4.41373 13.9474 -26.5068
LeftUpLeg  -6.74399 6.29179 8.43578
LeftLeg  69.2833 4.2589 13.1411
LeftFoot  -5.4898 0.180838 -2.88263
LeftToes  1.06245e-005 4.65868e-005 -8.65515e-006
83
root  7.19448 39.1316 -1.10824 126.625 -86.2286 -131.219
RightUpLeg  -9.1073 -17.3874 4.2089
RightLeg  30.1311 5.83351 3.23939
RightFoot  -11.7133 -0.115441 -4.42074
RightToes  0.000481921 0.542163 -0.142578
Spine  6.63735 -0.495212 2.96976
Spine1  4.09432 -1.77832 9.7965
HEad  -12.3147 4.42226 11.6697
LeftShoulder1  9.73127 -13.5768 -49.7403
LeftArm  1.98758 6.14032 -28.1323
LeftForeArm  29.2175 -26.7066 -4.89025
LeftHand  -0.25398 0.0180481 5.50724
RightShoulder  4.8488 8.16537 35.5957
RightArm  -23.0298 -5.60333 36.2192
RightForeArm  -46.3523 12.1597 7.10996
RightHand  -4.35283 14.3048 -25.7027
LeftUpLeg  -10.6269 6.76815 5.45804
LeftLeg  64.3836 4.74377 11.368
LeftFoot  -6.07867 0.158543 -2.6592
LeftToes  1.06245e-005 4.65868e-005 -8.65515e-006
84
root  5.72848 40.3013 -1.17336 168.053 -84.69 -171.106
RightUpLeg  -4.23686 -19.1202 -0.132796
RightLeg  22.4274 13.4409 6.42747
RightFoot  -7.47352 -0.189147 3.87836
RightToes  0.000481921 0.542163 -0.142578
Spine  4.73358 1.39983 3.9119
Spine1  3.45414 0.88976 5.53923
HEad  -11.3006 2.43049 9.60003
LeftShoulder1  9.92061 -13.8232 -49.9876
LeftArm  -0.428028 13.774 -26.2219
LeftForeArm  28.3218 -12.5614 -6.01062
LeftHand  -0.25398 0.0180481 5.50724
RightShoulder  4.86808 8.19025 35.6524
RightArm  -14.9063 -0.597915 38.4947
RightForeArm  -41.8574 15.476 7.86346
RightHand  -3.84703 13.2593 -24.0634
LeftUpLeg  -14.1634 7.54917 2.34957
LeftLeg  56.5517 5.23694 9.0018
LeftFoot  -6.15814 0.196051 -3.51965
LeftToes  1.06245e-005 4.65868e-005 -8.65515e-006
